:FULLY-SPECIFIED
:FORCE-ALL-JOINTS-BE-3DOF
:DEGREES
34
root 5.98394 16.8999 -28.0766 10.0029 -1.90615 -2.27125
lfemur -20.1023 1.67201 -19.7778
ltibia 33.7617 0 0
lfoot -36.0546 4.27353 0
ltoes 36.2325 0 0
rfemur -16.8052 7.44754 19.5678
rtibia 30.5332 0 0
rfoot -27.4731 -19.1657 0
rtoes 15.0838 0 0
lowerback -5.48452 2.57423 -0.988734
upperback -1.9212 3.47032 0.845039
thorax 0.982589 1.73993 1.63365
lowerneck -9.54487 -1.65261 2.66147
upperneck -2.58112 -2.46814 0.749079
head 0.759896 -1.23662 -0.295566
lclavicle -3.82032e-14 -8.87698e-15 0
lhumerus -41.5377 -12.7814 97.1193
lradius 38.8249 0 0
lwrist 5.69982 0 0
lhand -11.2236 6.07354 0
lfingers 7.12502 0 0
lthumb 14.805 35.5247 0
rclavicle -3.82032e-14 -8.87698e-15 0
rhumerus -40.6511 -5.05046 -88.6507
rradius 39.1449 0 0
rwrist 11.1 0 0
rhand -26.8184 -19.9103 0
rfingers 7.12502 0 0
rthumb -0.244672 -49.8899 0
35
root 5.98273 16.8999 -28.0767 10.0077 -1.90128 -2.26573
lfemur -20.1065 1.66669 -19.7786
ltibia 33.7593 0 0
lfoot -36.0429 4.27424 0
ltoes 36.2152 0 0
rfemur -16.8056 7.43935 19.5659
rtibia 30.5264 0 0
rfoot -27.4684 -19.1692 0
rtoes 15.0199 0 0
lowerback -5.49364 2.56964 -0.971785
upperback -1.91819 3.46355 0.830572
thorax 0.992815 1.73634 1.60954
lowerneck -9.54364 -1.65004 2.66714
upperneck -2.58706 -2.46525 0.760805
head 0.757887 -1.23511 -0.292711
lclavicle -3.79347e-14 -8.94523e-15 0
lhumerus -41.5362 -12.7933 97.1087
lradius 38.8595 0 0
lwrist 5.72192 0 0
lhand -11.2297 6.05002 0
lfingers 7.12502 0 0
lthumb 14.7991 35.5016 0
rclavicle -3.79347e-14 -8.94523e-15 0
rhumerus -40.6424 -5.04933 -88.6731
rradius 39.1396 0 0
rwrist 11.0976 0 0
rhand -26.8157 -19.9163 0
rfingers 7.12502 0 0
rthumb -0.242088 -49.896 0
36
root 5.97933 16.9 -28.077 10.0203 -1.88904 -2.24935
lfemur -20.112 1.63971 -19.7809
ltibia 33.7445 0 0
lfoot -36.0163 4.28958 0
ltoes 36.1666 0 0
rfemur -16.8072 7.40898 19.5592
rtibia 30.5085 0 0
rfoot -27.4558 -19.1701 0
rtoes 14.8367 0 0
lowerback -5.51852 2.55606 -0.925965
upperback -1.90976 3.4437 0.789807
thorax 1.02101 1.72587 1.54254
lowerneck -9.54039 -1.64223 2.68399
upperneck -2.60311 -2.45649 0.792455
head 0.752454 -1.23056 -0.285236
lclavicle -3.67975e-14 -9.10524e-15 0
lhumerus -41.5324 -12.8229 97.0773
lradius 38.953 0 0
lwrist 5.78163 0 0
lhand -11.2501 5.96972 0
lfingers 7.12502 0 0
lthumb 14.7795 35.4227 0
rclavicle -3.67975e-14 -9.10524e-15 0
rhumerus -40.6185 -5.04915 -88.7361
rradius 39.1246 0 0
rwrist 11.0892 0 0
rhand -26.8093 -19.9357 0
rfingers 7.12502 0 0
rthumb -0.23589 -49.9153 0
37
root 5.97413 16.9002 -28.0774 10.0385 -1.87175 -2.22274
lfemur -20.1117 1.58079 -19.7846
ltibia 33.7111 0 0
lfoot -35.9835 4.33173 0
ltoes 36.0924 0 0
rfemur -16.8106 7.34881 19.5467
rtibia 30.4834 0 0
rfoot -27.4374 -19.1568 0
rtoes 14.545 0 0
lowerback -5.55544 2.53395 -0.857874
upperback -1.89676 3.41159 0.726693
thorax 1.06351 1.70909 1.44019
lowerneck -9.5358 -1.62941 2.71131
upperneck -2.62716 -2.44208 0.839268
head 0.744325 -1.22314 -0.27453
lclavicle -3.44285e-14 -9.29936e-15 0
lhumerus -41.5273 -12.8625 97.0257
lradius 39.0916 0 0
lwrist 5.86986 0 0
lhand -11.2862 5.8229 0
lfingers 7.12502 0 0
lthumb 14.7447 35.2784 0
rclavicle -3.44285e-14 -9.29936e-15 0
rhumerus -40.5825 -5.05296 -88.8335
rradius 39.1016 0 0
rwrist 11.0725 0 0
rhand -26.8009 -19.9695 0
rfingers 7.12502 0 0
rthumb -0.227764 -49.9492 0
38
root 5.96748 16.9005 -28.0778 10.0607 -1.85009 -2.18707
lfemur -20.1037 1.48805 -19.7896
ltibia 33.6593 0 0
lfoot -35.9488 4.40258 0
ltoes 35.9986 0 0
rfemur -16.8167 7.25269 19.5285
rtibia 30.4544 0 0
rfoot -27.4153 -19.1208 0
rtoes 14.154 0 0
lowerback -5.60067 2.504 -0.772867
upperback -1.88003 3.36835 0.645176
thorax 1.11673 1.68663 1.30933
lowerneck -9.53056 -1.6122 2.74769
upperneck -2.65787 -2.42271 0.897181
head 0.734014 -1.21325 -0.261667
lclavicle -3.06427e-14 -9.48262e-15 0
lhumerus -41.5216 -12.9066 96.9553
lradius 39.2635 0 0
lwrist 5.97863 0 0
lhand -11.3378 5.60639 0
lfingers 7.12502 0 0
lthumb 14.695 35.0655 0
rclavicle -3.06427e-14 -9.48262e-15 0
rhumerus -40.5374 -5.06144 -88.9596
rradius 39.0733 0 0
rwrist 11.0456 0 0
rhand -26.7913 -20.0183 0
rfingers 7.12502 0 0
rthumb -0.218535 -49.998 0
39
root 5.95972 16.9009 -28.0782 10.0861 -1.82305 -2.14399
lfemur -20.0915 1.36794 -19.796
ltibia 33.5957 0 0
lfoot -35.9115 4.49381 0
ltoes 35.8917 0 0
rfemur -16.8264 7.11593 19.5053
rtibia 30.4247 0 0
rfoot -27.3919 -19.0573 0
rtoes 13.6705 0 0
lowerback -5.65045 2.46712 -0.675052
upperback -1.86034 3.31532 0.549201
thorax 1.17719 1.65926 1.15615
lowerneck -9.52537 -1.5917 2.79101
upperneck -2.6946 -2.39961 0.962831
head 0.721815 -1.20153 -0.247395
lclavicle -2.54342e-14 -9.6227e-15 0
lhumerus -41.5152 -12.9515 96.8677
lradius 39.4588 0 0
lwrist 6.10109 0 0
lhand -11.4026 5.32353 0
lfingers 7.12502 0 0
lthumb 14.6325 34.7872 0
rclavicle -2.54342e-14 -9.6227e-15 0
rhumerus -40.4858 -5.07291 -89.1091
rradius 39.0432 0 0
rwrist 11.0065 0 0
rhand -26.7806 -20.0817 0
rfingers 7.12502 0 0
rthumb -0.208167 -50.0614 0
40
root 5.95119 16.9011 -28.0788 10.1144 -1.78798 -2.0957
lfemur -20.0833 1.23533 -19.8035
ltibia 33.5338 0 0
lfoot -35.8663 4.58686 0
ltoes 35.7786 0 0
rfemur -16.8405 6.9353 19.4788
rtibia 30.3968 0 0
rfoot -27.3692 -18.9649 0
rtoes 13.0996 0 0
lowerback -5.70102 2.42444 -0.567289
upperback -1.83846 3.2541 0.44271
thorax 1.24148 1.62786 0.986167
lowerneck -9.52097 -1.56942 2.8385
upperneck -2.7375 -2.37447 1.03356
head 0.707812 -1.18885 -0.232145
lclavicle -1.89754e-14 -9.69996e-15 0
lhumerus -41.5079 -12.9957 96.7655
lradius 39.6699 0 0
lwrist 6.23149 0 0
lhand -11.4766 4.98421 0
lfingers 7.12502 0 0
lthumb 14.5612 34.453 0
rclavicle -1.89754e-14 -9.69996e-15 0
rhumerus -40.4305 -5.08331 -89.2771
rradius 39.0157 0 0
rwrist 10.9532 0 0
rhand -26.7678 -20.1585 0
rfingers 7.12502 0 0
rthumb -0.195763 -50.1383 0
41
root 5.9422 16.9012 -28.0796 10.1457 -1.74059 -2.04487
lfemur -20.0927 1.11344 -19.8122
ltibia 33.4932 0 0
lfoot -35.8032 4.6529 0
ltoes 35.6669 0 0
rfemur -16.8602 6.70902 19.4516
rtibia 30.3732 0 0
rfoot -27.3495 -18.8456 0
rtoes 12.444 0 0
lowerback -5.7486 2.37732 -0.451192
upperback -1.81512 3.18656 0.329639
thorax 1.30627 1.59339 0.804229
lowerneck -9.51808 -1.5473 2.88669
upperneck -2.78742 -2.34949 1.1074
head 0.691867 -1.17633 -0.216025
lclavicle -1.16176e-14 -9.70743e-15 0
lhumerus -41.4989 -13.0398 96.6514
lradius 39.8909 0 0
lwrist 6.36517 0 0
lhand -11.554 4.60484 0
lfingers 7.12502 0 0
lthumb 14.4867 34.0791 0
rclavicle -1.16176e-14 -9.70743e-15 0
rhumerus -40.3739 -5.08624 -89.4591
rradius 38.9961 0 0
rwrist 10.884 0 0
rhand -26.751 -20.247 0
rfingers 7.12502 0 0
rthumb -0.179565 -50.2268 0
42
root 5.93307 16.9008 -28.0808 10.181 -1.67488 -1.99472
lfemur -20.1383 1.03386 -19.8219
ltibia 33.5004 0 0
lfoot -35.7073 4.6529 0
ltoes 35.5642 0 0
rfemur -16.8867 6.4368 19.4269
rtibia 30.356 0 0
rfoot -27.3352 -18.705 0
rtoes 11.7046 0 0
lowerback -5.78941 2.32735 -0.327125
upperback -1.79101 3.11481 0.213926
thorax 1.36833 1.55694 0.614515
lowerneck -9.51746 -1.52775 2.93141
upperneck -2.84598 -2.32736 1.18309
head 0.673631 -1.16533 -0.198824
lclavicle -3.89038e-15 -9.65077e-15 0
lhumerus -41.4869 -13.0864 96.5289
lradius 40.1182 0 0
lwrist 6.4986 0 0
lhand -11.6268 4.2084 0
lfingers 7.12502 0 0
lthumb 14.4165 33.6877 0
rclavicle -3.89038e-15 -9.65077e-15 0
rhumerus -40.3183 -5.07294 -89.651
rradius 38.9906 0 0
rwrist 10.7969 0 0
rhand -26.7276 -20.3445 0
rfingers 7.12502 0 0
rthumb -0.156953 -50.3243 0
43
root 5.92409 16.8996 -28.0827 10.2218 -1.58326 -1.94895
lfemur -20.244 1.03657 -19.8326
ltibia 33.5882 0 0
lfoot -35.559 4.53754 0
ltoes 35.4791 0 0
rfemur -16.9213 6.1198 19.409
rtibia 30.3467 0 0
rfoot -27.3284 -18.552 0
rtoes 10.8804 0 0
lowerback -5.81963 2.27633 -0.194208
upperback -1.76678 3.0412 0.0995035
thorax 1.42451 1.51969 0.420536
lowerneck -9.51988 -1.51359 2.96781
upperneck -2.91555 -2.31127 1.26008
head 0.652535 -1.15742 -0.18001
lclavicle 3.4977e-15 -9.54835e-15 0
lhumerus -41.4703 -13.14 96.402
lradius 40.3499 0 0
lwrist 6.62936 0 0
lhand -11.6856 3.82437 0
lfingers 7.12502 0 0
lthumb 14.3599 33.3078 0
rclavicle 3.4977e-15 -9.54835e-15 0
rhumerus -40.2657 -5.03228 -89.8491
rradius 39.0063 0 0
rwrist 10.6902 0 0
rhand -26.6939 -20.4475 0
rfingers 7.12502 0 0
rthumb -0.124448 -50.4273 0
